<svg id="Layer_1" data-name="Layer 1" xmlns="http://www.w3.org/2000/svg" viewBox="0 0 300 300"><defs><style>.cls-1{fill:#4a4af4;}</style></defs><title>Artboard 1</title><path class="cls-1" d="M65.81,238.36h-28C15.89,195.09,20.28,133.28,65,91.72a124.67,124.67,0,0,1,163-6c49.5,39.77,58.11,104.92,34.18,152.65H234.28c17.14-28,21.15-57.62,10.34-88.77-7.44-21.46-21-38.37-40.08-50.7a100.23,100.23,0,0,0-120.16,8.27C65.4,123.6,54,144.39,50.5,169.27S52.39,217.11,65.81,238.36Z"/><path d="M111.26,163.66l-10.39-21.91a66.7,66.7,0,0,1,9.41-6.19,96.75,96.75,0,0,1,28.09-10.22A62.4,62.4,0,0,1,151.08,124c8.73.09,17.32,1,25.47,4.48s14.68,8.95,18.69,17.06A42.39,42.39,0,0,1,199.31,161c.23,2.65.22,5.3.22,7.95v69.41h-29.7v-17.1c-.8,1.22-1.43,2.27-2.14,3.26-6.49,9-15.18,14.71-26.15,16.53a47.45,47.45,0,0,1-27.64-3.39c-9.81-4.4-15.58-12-17.15-22.71a32.17,32.17,0,0,1,2.15-18.1A31.27,31.27,0,0,1,110,183.87a61.71,61.71,0,0,1,18.29-8.34,133,133,0,0,1,23.84-4.45,41.11,41.11,0,0,0,9.09-1.5,11.51,11.51,0,0,0,5.34-3.3c2-2.36,2.13-5.1,1.58-7.95-.79-4.09-3.44-6.62-7.15-8.17a30.66,30.66,0,0,0-11.34-2c-7.94-.15-15.36,1.92-22.5,5.19a61.28,61.28,0,0,0-15.67,10.21A1,1,0,0,1,111.26,163.66Zm56.5,26.41h-.57a120.94,120.94,0,0,0-18.73,1.23,40.67,40.67,0,0,0-11.52,3.31c-5.53,2.69-8.94,6.8-8.8,13.26A9.31,9.31,0,0,0,133,216.2a17.47,17.47,0,0,0,7.58,2.14,22.66,22.66,0,0,0,16.4-4.69,27.91,27.91,0,0,0,9.83-15.75A30,30,0,0,0,167.76,190.07Z"/></svg>