<svg version="1.2" baseProfile="tiny-ps" xmlns="http://www.w3.org/2000/svg" viewBox="0 0 1617 875" width="1617" height="875">
	<title>assets-images-global-logos-bac-logo-v2-CSX3648cbbb-svg</title>
	<style>
		tspan { white-space:pre }
		.shp0 { fill: #e31837 } 
		.shp1 { fill: #012169 } 
	</style>
	<path id="Layer" class="shp0" d="M806.28 874.26C1061.53 656 1420.09 443.8 1617 367.41C1586.61 348.01 1539.21 320.12 1485.73 289.8C1231.69 373.47 935.12 558.99 670.14 768.77C715.11 802.72 762.52 837.88 806.28 874.26L806.28 874.26Z" />
	<path id="Layer" class="shp1" d="M689.59 281.32C651.91 263.13 610.58 246.15 578.98 231.6C482.96 278.89 357.76 350.43 199.75 463.2C233.79 481.39 270.25 503.22 309.14 525.04C430.69 435.31 553.46 350.43 689.59 281.32Z" />
	<path id="Layer" class="shp0" d="M916.88 177.03C870.7 151.57 710.25 92.16 599.64 66.69C566.83 78.82 520.64 97.01 489.04 110.34C529.15 121.26 678.65 161.27 806.28 225.54C839.09 209.77 885.28 190.37 916.88 177.03Z" />
	<path id="Layer" class="shp1" d="M373.57 161.27C231.35 226.75 81.85 316.48 0.41 368.62C29.58 381.96 58.76 392.87 98.87 412.27C278.76 291.02 419.75 217.05 475.67 192.8C435.55 178.25 397.87 168.55 373.57 161.27L373.57 161.27Z" />
	<path id="Layer" class="shp0" d="M1023.85 139.45C1056.66 128.53 1094.34 118.83 1127.16 109.13C1032.35 69.12 913.24 26.68 806.28 0C789.26 4.85 738.21 18.19 702.96 29.1C739.42 40.01 859.76 67.9 1023.85 139.45ZM424.62 595.37C463.51 618.41 504.84 649.94 544.95 676.61C811.14 470.48 1073.68 311.63 1361.75 221.9C1321.64 201.29 1286.39 183.1 1241.42 161.27C1068.82 204.92 773.46 322.54 424.62 595.37Z" />
</svg>