<?xml version="1.0" encoding="utf-8"?>
<!-- Svg Vector Icons : http://www.onlinewebfonts.com/icon -->
<!DOCTYPE svg PUBLIC "-//W3C//DTD SVG 1.1//EN" "http://www.w3.org/Graphics/SVG/1.1/DTD/svg11.dtd">
<svg version="1.1" xmlns="http://www.w3.org/2000/svg" xmlns:xlink="http://www.w3.org/1999/xlink" x="0px" y="0px" viewBox="0 0 256 256" enable-background="new 0 0 256 256" xml:space="preserve">
<metadata> Svg Vector Icons : http://www.onlinewebfonts.com/icon </metadata>
<g><g><g><path fill="#000000" d="M122.5,10.7c-11.7,3.1-18.9,15.3-16,26.6c0.9,3.5,2.6,6.8,4.7,9.1l1.6,1.8l-2,0.5c-20.1,5.1-34.8,19-42.1,40.1c-2.7,7.7-3.6,13.2-6.5,37.4c-2.4,20.3-8.8,41.3-15.4,51.2c-1.1,1.6-4.9,5.9-8.5,9.6c-7.3,7.5-8.4,9.3-9.7,15.6c-1.8,8.9,1.7,15.5,9,17.1c1.6,0.3,12.8,0.5,33.3,0.5h31l0.6,3.8c1.6,11.1,10.6,20.1,21.7,21.7c14.1,2.1,27.2-7.7,29.2-21.7l0.6-3.7h31c20.1,0,31.8-0.2,33.3-0.5c5.1-1.1,8.3-4.6,9.4-10.1c0.4-2.3,0.4-3.5-0.3-6.8c-1.3-6.5-2.4-8.3-9.7-15.9c-3.6-3.7-7.4-8-8.5-9.6c-4.3-6.4-8.1-16.2-11.5-30c-2.1-8.3-3.3-15.3-4.6-27c-2.5-22.6-4.5-30.5-10-41.4C175,63.5,161.9,53,145.1,48.7l-2-0.5l1.6-1.8c4.5-5,6.4-12.9,4.7-19.5C146.3,15,134,7.6,122.5,10.7z"/></g></g></g>
</svg>