<svg version="1.1" id="Layer_1" xmlns:x="ns_extend;" xmlns:i="ns_ai;" xmlns:graph="ns_graphs;" xmlns="http://www.w3.org/2000/svg" xmlns:xlink="http://www.w3.org/1999/xlink" x="0px" y="0px" viewBox="0 0 45.5 61" style="enable-background:new 0 0 45.5 61;" xml:space="preserve">
 <style type="text/css">
  .st0{fill:#00C805;}
 </style>
 <metadata>
  <sfw xmlns="ns_sfw;">
   <slices>
   </slices>
   <sliceSourceBounds bottomLeftOrigin="true" height="61" width="45.5" x="75.2" y="100.5">
   </sliceSourceBounds>
  </sfw>
 </metadata>
 <g>
  <path class="st0" d="M19.1,47.9L18.7,48c-2.6,0.9-6.5,2.2-9.9,3.8c-0.2,0.1-0.3,0.3-0.3,0.3c-0.1,0.1-0.1,0.3-0.2,0.5l0,0
		c-0.4,0.9-0.9,2.2-1.2,2.8l-0.2,0.4c0,0.1,0,0.1,0,0.2c0,0,0.1,0,0.1,0c0,0,0,0,0.1,0l0.4-0.2c0.9-0.4,2.1-1.1,3.4-1.7l0,0
		c2.4-1.1,5.1-2.4,6.7-3.2c0,0,0.3-0.1,0.4-0.4l1.2-2.4c0-0.1,0-0.1,0-0.2C19.2,47.9,19.2,47.8,19.1,47.9z">
  </path>
  <path class="st0" d="M9.4,44.1c0.2-0.3,1-1.9,1.1-2.2l0-0.1c5.3-10,11.7-19.4,19.1-27.9l0.2-0.2c0.1-0.1,0.1-0.2,0-0.3
		c0-0.1-0.1-0.1-0.2-0.1l-0.3,0c-4.9,0.7-9.8,1.6-14.6,2.8c-0.5,0.1-0.8,0.4-0.9,0.5c-3.6,4.3-7.1,8.9-10.2,13.6
		c-0.2,0.2-0.2,0.5-0.2,0.8c0,0.2,0.8,6.1,1.9,10.6C2.6,49.8,0,60.7,0,60.7c0,0.1,0,0.1,0,0.2C0.1,61,0.2,61,0.2,61h1.6
		c0.1,0,0.2-0.1,0.2-0.2l0.1-0.3c1.7-4.5,3.6-9,5.7-13.4C8.3,46.1,9.4,44.1,9.4,44.1z">
  </path>
  <path class="st0" d="M32.1,15.7l0-0.3c0-0.1-0.1-0.2-0.2-0.2c-0.1,0-0.2,0-0.3,0.1l-0.2,0.2c-8.6,10-15.9,21.1-21.6,33l-0.1,0.3
		c0,0.1,0,0.2,0,0.3c0,0,0.1,0.1,0.2,0.1c0,0,0.1,0,0.1,0l0.3-0.1c4.9-2,9.8-3.8,14.7-5.2c0.3-0.1,0.5-0.3,0.7-0.6
		c2.2-4.2,7.2-12.3,7.2-12.3c0.1-0.2,0.1-0.5,0.1-0.5S32.1,20.6,32.1,15.7z">
  </path>
  <path class="st0" d="M43.2,1.6c-1.2-1.1-3-1.6-5.8-1.6c-2.5-0.1-5.5,0.5-8.9,1.6c-0.5,0.2-0.9,0.5-1.3,0.8
		c-3.4,3.2-6.8,6.6-9.9,10.2l-0.2,0.3c-0.1,0.1-0.1,0.2,0,0.3c0,0.1,0.2,0.1,0.3,0.1l0.4-0.1c5.1-1.1,10.2-1.9,15.3-2.5
		c0.3,0,0.7,0.1,0.9,0.3c0.2,0.2,0.4,0.6,0.4,0.9c-0.1,5,0.1,10,0.5,14.9l0,0.3c0,0.1,0.1,0.2,0.2,0.2c0,0,0,0,0.1,0
		c0.1,0,0.1,0,0.2-0.1l0.2-0.3c2.8-4.1,5.9-8,9.2-11.7c0.4-0.4,0.5-0.7,0.5-1.1C46.2,7.7,44.6,2.9,43.2,1.6z">
  </path>
 </g>
</svg>