<svg xmlns="http://www.w3.org/2000/svg" height="800" width="1200" viewBox="-3.63972 -6.0662 31.54424 36.3972"><path d="M0 24.2648h24.2648V0H0z" fill="#dd1e25"/><path d="M20.9117 14.9291c0-.975-.4022-1.5423-1.1458-1.5423-.7437 0-1.1459.5673-1.1459 1.5423 0 .9808.3966 1.5427 1.1459 1.5427.749 0 1.1458-.562 1.1458-1.5427m.9035 0c0 1.2009-.8538 2.044-2.0493 2.044-1.19 0-2.0493-.8431-2.0493-2.044 0-1.1952.8646-2.0436 2.0493-2.0436 1.1895 0 2.0493.8484 2.0493 2.0436m-6.1924.1764c0 .11.0166.1817.0607.2699h.6555v.975a1.6844 1.6844 0 01-.6498.1267c-.793 0-1.2065-.5672-1.2065-1.548 0-.9807.4134-1.548 1.1624-1.548.5013 0 .7934.248.9638.6777l.0606.1542h.397v-.986c-.4961-.2367-.9424-.3415-1.4599-.3415-1.2121 0-2.0274.8096-2.0274 2.0493 0 1.245.7934 2.0383 2.0274 2.0383.49 0 .997-.138 1.5424-.4078v-1.7187h-1.4655c-.044.0882-.0607.1541-.0607.259m-3.3492-1.0027c0-.4021-.248-.617-.744-.617h-.6499v1.2393h.6499c.4903 0 .744-.2257.744-.6223m-4.3138 1.1236l-.5397-1.4594-.5401 1.4594zm5.382 1.2009c.0335.0607.05.1323.05.2261 0 .0935-.0165.1651-.05.2258a3.298 3.298 0 01-.4293.0275c-.5345 0-.7934-.2205-.8538-.7327l-.0222-.1926c-.066-.5564-.2476-.7712-.8537-.7712h-.303v1.173h.5231v.4794H7.9376v-.4794h.4519l-.2533-.6883H6.7039l-.2533.6883h.4625v.4794H5.4533v-.4794h.3856l1.3497-3.3768h.7328l1.3772 3.3768h.7602v-2.8974h-.4681v-.4794h2.2147c.7874 0 1.2997.3912 1.2997 1.0192 0 .6226-.5123.9528-1.008.975v.0166c.5014.0388.7053.3196.7547.7546l.0222.204c.0328.3195.0991.4628.3524.4628a.6648.6648 0 00.1154-.0113m-8.3954-2.9415c.369 0 .4956.1598.617.6227l.0384.1485h.3966v-1.2506H2.6766v.4794h.4685v2.8974h-.4685v.4794h1.84v-.4794h-.551v-1.1236h1.135c.0444-.0935.0606-.1655.0606-.2755 0-.1045-.0162-.1708-.0607-.2643H3.9657v-1.234zm16.7365-3.5426c0-.6057-.369-1.0244-1.0633-1.1842l-.6996-.1599c-.4074-.0934-.5782-.2533-.5782-.5231 0-.3253.259-.5288.7656-.5288.5069 0 .8043.1816.92.6113l.0494.1873h.3969v-.9532c-.4463-.2257-.92-.3414-1.3995-.3414-.942 0-1.5476.4519-1.5476 1.179 0 .5616.3524.975 1.0297 1.1235l.7.1546c.4458.099.6113.2751.6113.5672 0 .358-.2702.5563-.81.5563-.6114 0-.9253-.2423-1.063-.7052l-.0715-.2367h-.3965v1.08c.5013.2476.9803.358 1.6249.358.9253 0 1.5314-.4628 1.5314-1.1846m-3.526-.2423h-.3966l-.044.193c-.1101.49-.2643.6445-.628.6445h-.7659V7.6407h.5235v-.479h-1.8122v.479h.4681v2.8978h-.4681v.479h3.1231zm-3.4707 0h-.3965l-.0441.193c-.11.49-.2642.6445-.628.6445h-.7658V7.6407h.5235v-.479h-1.8126v.479h.4685v2.8978h-.4685v.479h3.1235zM3.4756 11.0175l-.9694-3.3768h-.441v-.479h1.796v.479h-.5178l.6445 2.3249.7712-2.804h.793l.7881 2.8092.6332-2.33h-.54v-.4791h4.6721v1.2502h-.3965l-.0388-.1489c-.121-.4624-.2477-.6223-.617-.6223h-.9144v1.1624h1.1074c.044.0935.0603.1599.0603.2643 0 .11-.0162.1817-.0603.2755H9.1388v1.1956h.9532c.3577 0 .5175-.1546.6276-.6446l.0444-.193h.3966v1.3166H7.8497v-.479h.4685V7.6407h-.761l-.9637 3.3768h-.7659l-.782-2.7982-.8044 2.7982z" fill="#fff"/></svg>